<?xml version="1.0" encoding="UTF-8"?>
<svg width="37px" height="26px" viewBox="0 0 37 26" version="1.1" xmlns="http://www.w3.org/2000/svg" xmlns:xlink="http://www.w3.org/1999/xlink">
    <!-- Generator: Sketch 61.2 (89653) - https://sketch.com -->
    <title>Page 1</title>
    <desc>Created with Sketch.</desc>
    <g id="step-2" stroke="none" stroke-width="1" fill="none" fill-rule="evenodd">
        <g id="Desktop-HD-Copy-14" transform="translate(-1393.000000, -901.000000)">
            <g id="Page-1" transform="translate(1393.000000, 901.000000)">
                <path d="M30.8140273,0.204701266 C26.5177854,-0.459328458 21.8634913,0.518416096 18.6698809,2.7564422 C17.3475312,3.68190095 15.1136008,5.68638379 15.009706,8.71102079 C14.9962382,9.1151707 14.9997013,9.53287618 15.0029721,9.93702609 C15.0048961,10.1421026 15.0064353,10.3278141 15.0064353,10.5123636 L15.0064353,25.7986028 C15.0064353,25.9078221 15.0912827,25.996127 15.2015266,26 C15.3110009,26 15.3989267,25.9196348 15.406815,25.812933 C15.6563549,22.3568413 18.7160564,20.3149838 20.019936,19.5975063 C22.8416415,18.0426814 25.939053,17.6974015 28.0406137,17.6819094 C29.1780692,17.6722268 30.3543891,17.662157 31.497809,17.4065375 C36.2850499,16.3329356 37,11.5906131 37,8.85935756 C37,5.86493014 36.3269926,3.69061525 34.942306,2.21228253 C33.9476096,1.14971878 32.5584978,0.474263638 30.8140273,0.204701266 Z" id="Mask" fill="#E6FF5A"></path>
                <path d="M29.2838338,6 L21.7154056,6 C21.3198597,6 21,6.22412648 21,6.50033214 C21,6.7765378 21.3198597,7 21.7154056,7 L29.2838338,7 C29.6791895,7 30,6.7765378 30,6.50033214 C30,6.22412648 29.6791895,6 29.2838338,6" id="Fill-3" fill="#504b48"></path>
                <path d="M29.2838338,9 L21.7154056,9 C21.3198597,9 21,9.22412648 21,9.50033214 C21,9.7765378 21.3198597,10 21.7154056,10 L29.2838338,10 C29.6791895,10 30,9.7765378 30,9.50033214 C30,9.22412648 29.6791895,9 29.2838338,9" id="Fill-5" fill="#504b48"></path>
                <path d="M29.2838338,12 L21.7154056,12 C21.3198597,12 21,12.2241265 21,12.5003321 C21,12.7765378 21.3198597,13 21.7154056,13 L29.2838338,13 C29.6791895,13 30,12.7765378 30,12.5003321 C30,12.2241265 29.6791895,12 29.2838338,12" id="Fill-7" fill="#504b48"></path>
                <path d="M0,0.202359543 L0,17.46423 C0,17.5754017 0.0952173344,17.6660075 0.212204444,17.6660075 C2.82803622,17.6660075 5.46299284,18.1710333 7.63142521,19.0877628 C11.1414454,20.5706333 13.3611487,23.0845092 13.5690805,25.8123857 C13.5772188,25.9175429 13.6699946,26 13.7825057,26 C13.9021377,25.9959256 13.9924721,25.9092001 13.9924721,25.7982225 L13.9924721,9.12984949 C13.9924721,9.0861957 13.9940998,9.04273594 13.9957274,8.99830608 C13.9981689,8.93777284 14,8.88558231 14,8.83300375 C14,3.96240551 7.81473892,0 0.212204444,0 C0.0952173344,0 0,0.0907998717 0,0.202359543 Z" id="Fill-9" fill="#E6FF5A"></path>
            </g>
        </g>
    </g>
</svg>
